Coordinates
version=1
nRows=13
nColumns=36
inDegrees=yes

Units are S.I. units (second, meters, Newtons, ...)
If the header above contains a line with 'inDegrees', this indicates whether rotational values are in degrees (yes) or radians (no).

endheader
time	pelvis_tilt	pelvis_list	pelvis_rotation	pelvis_tx	pelvis_ty	pelvis_tz	hip_flexion_r	hip_adduction_r	hip_rotation_r	knee_angle_r	knee_angle_r_beta	ankle_angle_r	subtalar_angle_r	mtp_angle_r	hip_flexion_l	hip_adduction_l	hip_rotation_l	knee_angle_l	knee_angle_l_beta	ankle_angle_l	subtalar_angle_l	mtp_angle_l	lumbar_extension	lumbar_bending	lumbar_rotation	arm_flex_r	arm_add_r	arm_rot_r	elbow_flex_r	pro_sup_r	arm_flex_l	arm_add_l	arm_rot_l	elbow_flex_l	pro_sup_l
      0.00000000	     -3.88522870	     -3.58990804	     -1.65510323	     -1.05606008	      1.34627245	     -0.07615489	      3.75472853	      4.31325174	      4.53487759	      3.08090860	      0.05377200	     -2.77756679	    -16.24544560	     -5.53612529	      1.34561990	     -3.67086595	      2.00854573	      0.38906001	      0.00679038	      5.70478953	     -3.67308653	     -5.53612529	     -7.03143620	      3.20028405	     -0.22833393	     -1.18595137	    -10.79412858	      7.99653790	     55.49789571	     86.00716577	     -6.60273888	     -7.25639479	      3.25203422	     42.85368516	     79.96899623
      0.01694910	     -5.95465490	     -3.83363110	     -2.17816012	     -1.05376426	      1.34173332	     -0.07626673	      7.28811101	      4.91015928	      5.97296148	      6.47257129	      0.11296768	      1.33582831	    -15.21011981	     -6.31905032	      3.71905966	     -3.59492897	      2.81041080	      0.52316323	      0.00913092	      5.92947771	     -3.59976538	     -6.31905032	     -4.32806244	      3.63478195	     -0.92589777	     -2.15992939	    -10.54370562	      6.72080470	     59.24198952	     88.07167509	     -8.36423621	     -6.24330675	     -0.92511416	     43.17462013	     84.70904798
      0.03389830	     -6.96116351	     -3.17325481	     -2.24273787	     -1.05295133	      1.34365877	     -0.07626085	      9.29282058	      4.25084756	      5.56736777	      8.59889708	      0.15007907	      3.11301597	    -15.17187208	     -6.49364053	      4.62074647	     -2.87973172	      2.08978764	      0.42025875	      0.00733490	      6.01555203	     -3.08105224	     -6.49364053	     -3.11494832	      2.57161300	     -1.30565187	     -2.60006884	    -10.41060533	      6.75751162	     61.46921440	     86.14181239	     -9.16980021	     -7.47252687	     -0.68020502	     44.52196302	     83.18073749
      0.05084750	     -7.01576996	     -2.80514497	     -1.90023632	     -1.05360379	      1.34310013	     -0.07635696	     10.62997393	      3.87189769	      5.46394317	     11.00067497	      0.19199800	      4.12179590	    -16.27976718	     -6.83618868	      4.64164229	     -2.47057864	      2.10269375	      0.34735283	      0.00606245	      5.94082028	     -2.71529439	     -6.83618868	     -3.23506655	      1.88202856	     -1.07266016	     -3.58533905	    -10.33278723	      6.55670220	     65.80031491	     89.06944642	     -9.21577845	     -8.75872159	      0.40306081	     46.11111043	     88.25355974
      0.06779660	     -6.89242214	     -2.54277570	     -1.72215249	     -1.03906288	      1.34194934	     -0.08739181	     10.87019365	      3.21897526	      5.34140367	     12.80700669	      0.22352443	      4.54507176	    -17.09858580	     -6.85019782	      4.13143429	     -1.88241130	      1.87693839	      0.30932314	      0.00539871	      6.10166257	     -2.05496159	     -6.85019782	     -2.81409721	      1.78775343	     -1.36382876	     -4.62771818	    -11.15434406	      7.67496548	     69.61509552	     89.24639325	    -10.07296930	     -8.58759536	      0.78327118	     46.85826990	     88.53517100
      0.08474580	     -6.64160527	     -2.30533284	     -1.45169956	     -1.03958494	      1.34506145	     -0.08813470	     10.90379656	      2.67384113	      5.48355821	     13.88724550	      0.24237816	      5.04106273	    -17.56038544	     -6.94569029	      3.62421490	     -1.37705351	      1.85822865	      0.28078157	      0.00490056	      6.42288956	     -1.76701638	     -6.94569029	     -2.68008150	      1.63151681	     -1.32014016	     -5.88416843	    -11.76655413	      7.05839918	     74.82696510	     88.86622212	    -10.48008014	     -8.38168050	      0.71645273	     47.28812417	     88.54416023
      0.10169490	     -6.32804224	     -2.28536249	     -0.94364699	     -1.04002561	      1.34808860	     -0.08826343	     10.76116437	      2.32990704	      4.97714424	     14.69761438	      0.25652176	      4.93862905	    -18.31967382	     -7.14854970	      3.15123277	     -1.17667272	      1.99897801	      0.26110120	      0.00455708	      6.71369308	     -1.29503266	     -7.14854970	     -2.64952531	      1.61679413	     -1.32024979	     -6.67849427	    -12.65714216	      6.92094675	     79.67819026	     91.40000022	    -10.46050902	     -8.19891431	      0.56294923	     47.31503564	     90.64160323
      0.11864410	     -5.96660752	     -2.15029498	     -0.55268968	     -1.04076373	      1.35073474	     -0.08902835	     10.48865729	      2.01887560	      4.57533030	     15.17187310	      0.26479914	      4.92857995	    -18.76779365	     -7.21699200	      2.72882499	     -0.92930885	      2.18005428	      0.24837760	      0.00433501	      6.69293832	     -1.13250064	     -7.21699200	     -2.79168507	      1.42787102	     -1.82650149	     -6.75270436	    -13.39405416	      7.80484117	     82.92664851	     88.92752501	    -10.48757407	     -7.98836614	      0.23501956	     47.03021523	     87.95700612
      0.13559320	     -5.63129329	     -2.11819238	     -0.12373923	     -1.04106641	      1.34993812	     -0.08926554	      9.99666588	      1.89638325	      4.30520250	     14.96165838	      0.26113020	      4.57185589	    -19.45461851	     -7.26574061	      2.43017742	     -0.85834896	      2.39920557	      0.23485048	      0.00409891	      6.67601997	     -1.01890754	     -7.26574061	     -3.00494379	      1.30974844	     -2.25704322	     -6.80696734	    -14.38803788	      7.95207612	     87.83546709	     87.34713748	    -10.53752545	     -8.00267204	     -0.39406138	     47.69164081	     85.87003284
      0.15254240	     -5.24701371	     -2.15219757	      0.41857620	     -1.04179913	      1.34574133	     -0.08975394	      9.38539649	      1.89991784	      3.93116548	     14.74796674	      0.25740058	      4.45627020	    -19.90982669	     -7.27268390	      2.11197710	     -0.89970963	      2.88878663	      0.23176606	      0.00404508	      6.61144247	     -1.07122327	     -7.27268390	     -3.34698857	      1.24511868	     -2.46531512	     -6.91056760	    -15.49794716	      6.67735554	     93.58930218	     88.63910573	    -10.67030402	     -8.08373689	     -1.35732760	     48.52353808	     86.27703570
      0.16949150	     -4.90100469	     -2.21034029	      0.99458885	     -1.03482423	      1.34220429	     -0.09580574	      8.51240227	      1.77659714	      3.32336374	     14.11349619	      0.24632698	      4.35878771	    -20.07092326	     -7.30151018	      1.70233958	     -0.89565630	      3.24133584	      0.23063447	      0.00402533	      6.81988121	     -0.86435099	     -7.30151018	     -3.25431801	      1.41917173	     -3.45340351	     -6.01286402	    -17.11814487	      6.64114046	     99.50474399	     87.29291221	    -11.37181266	     -7.94849784	     -1.81334854	     48.89611253	     84.44420139
      0.18644070	     -4.63594152	     -2.18735113	      1.19708087	     -1.03555183	      1.34241986	     -0.09652355	      7.68600414	      1.72053695	      3.45792345	     13.18632779	      0.23014484	      3.98037802	    -20.92626718	     -7.34459208	      1.35211239	     -0.81947481	      3.50085386	      0.22209071	      0.00387621	      7.00190633	     -1.08241899	     -7.34459208	     -3.32930390	      1.35084732	     -2.24964879	     -5.65163415	    -18.90572475	      3.37883861	    105.55766244	     94.30209427	    -10.72507251	     -8.18041729	     -1.06117513	     48.94747682	     85.37963391
      0.20338980	     -4.33332942	     -2.24175924	      1.46110555	     -1.03591577	      1.34715917	     -0.09590834	      6.59331333	      1.75801146	      3.18416514	     11.85420258	      0.20689487	      3.71691806	    -21.00911335	     -7.37174779	      0.95949883	     -0.89907496	      3.91583479	      0.21387055	      0.00373275	      7.03859741	     -1.21055422	     -7.37174779	     -3.32042190	      1.37857907	     -2.22847765	     -2.47725844	    -21.17051018	      4.18218662	    109.71994519	     92.06519190	    -11.01600462	     -8.03155803	     -1.77227165	     48.76827603	     83.24810520
